<svg width="16" height="16" viewBox="0 0 16 16" fill="none" xmlns="http://www.w3.org/2000/svg">
<path d="M12.0907 2.36718C12.1893 2.27209 12.2679 2.15834 12.322 2.03255C12.3761 1.90676 12.4046 1.77145 12.4059 1.63452C12.4071 1.49759 12.3811 1.36179 12.3293 1.23503C12.2775 1.10827 12.201 0.99309 12.1042 0.896218C12.0074 0.799346 11.8923 0.722718 11.7656 0.670806C11.6389 0.618894 11.5031 0.592738 11.3662 0.593863C11.2293 0.594988 11.0939 0.623372 10.9681 0.677358C10.8423 0.731345 10.7284 0.809853 10.6332 0.908302L6.5 5.04018L2.36812 0.908302C2.27371 0.806983 2.15986 0.725717 2.03336 0.669353C1.90686 0.612989 1.77031 0.582682 1.63184 0.580239C1.49337 0.577796 1.35583 0.603267 1.22742 0.655134C1.09902 0.707 0.98237 0.784199 0.884444 0.882125C0.786518 0.98005 0.709319 1.0967 0.657453 1.2251C0.605587 1.35351 0.580115 1.49105 0.582558 1.62952C0.585001 1.76799 0.615309 1.90454 0.671673 2.03104C0.728037 2.15754 0.809302 2.27139 0.910621 2.3658L5.03975 6.49905L0.907872 10.6309C0.725712 10.8264 0.626542 11.085 0.631256 11.3521C0.63597 11.6193 0.744199 11.8742 0.933142 12.0632C1.12208 12.2521 1.37699 12.3603 1.64415 12.365C1.91132 12.3698 2.16988 12.2706 2.36537 12.0884L6.5 7.95655L10.6319 12.0898C10.8274 12.272 11.0859 12.3711 11.3531 12.3664C11.6203 12.3617 11.8752 12.2535 12.0641 12.0645C12.253 11.8756 12.3613 11.6207 12.366 11.3535C12.3707 11.0864 12.2715 10.8278 12.0894 10.6323L7.96025 6.49905L12.0907 2.36718Z" fill="#17141D"/>
</svg>
