<svg width="19" height="19" viewBox="0 0 19 19" fill="none" xmlns="http://www.w3.org/2000/svg">
<path d="M4.25 11.25H11.25V9.5H4.25V11.25ZM4.25 8.625H14.75V6.875H4.25V8.625ZM4.25 6H14.75V4.25H4.25V6ZM0.75 18.25V2.5C0.75 2.01875 0.9215 1.60692 1.2645 1.2645C1.6075 0.922083 2.01933 0.750583 2.5 0.75H16.5C16.9813 0.75 17.3934 0.9215 17.7364 1.2645C18.0794 1.6075 18.2506 2.01933 18.25 2.5V13C18.25 13.4812 18.0788 13.8934 17.7364 14.2364C17.394 14.5794 16.9818 14.7506 16.5 14.75H4.25L0.75 18.25ZM3.50625 13H16.5V2.5H2.5V13.9844L3.50625 13Z" fill="white"/>
</svg>
